# xmcd CD database file
#
# Track frame offsets:
#	150
#	24805
#	38420
#	60985
#	75033
#	104551
#	119900
#	141777
#	161797
#	185425
#	196344
#	205210
#	214597
#	245083
#	256351
#	286020
#
# Disc length: 4070 seconds
#
# Revision: 2
# Processed by: cddbd v1.5.2PL0 Copyright (c) Steve Scherf et al.
# Submitted via: CDex 1.51
#
DISCID=d90fe410
DTITLE=Dave Brubeck - Take Five His Greatest Hits
DYEAR=1995
DGENRE=Jazz
TTITLE0=Take Five
TTITLE1=I'm in a dancing mood
TTITLE2=In your own sweet way
TTITLE3=Trolley Song
TTITLE4=The Duke
TTITLE5=Night And Day
TTITLE6=kathy's waltz
TTITLE7=Everybody's Jumpin'
TTITLE8=It's a raggy waltz
TTITLE9=Bossa Nova USA
TTITLE10=Camptown races
TTITLE11=Unsquare Dance
TTITLE12=Blue Rondo a la Turk
TTITLE13=Theme from mr. broadway
TTITLE14=St. Louis Blues
TTITLE15=Pick Up Sticks
EXTD=YEAR: 1995
EXTT0=
EXTT1=
EXTT2=
EXTT3=
EXTT4=
EXTT5=
EXTT6=
EXTT7=
EXTT8=
EXTT9=
EXTT10=
EXTT11=
EXTT12=
EXTT13=
EXTT14=
EXTT15=
PLAYORDER=
